<svg width="708" height="488" viewBox="0 0 708 488" fill="none" xmlns="http://www.w3.org/2000/svg">
<g clip-path="url(#clip0_662_321)">
<path d="M350.36 82.9608C362.222 82.9608 371.838 72.8376 371.838 60.35C371.838 47.8624 362.222 37.7393 350.36 37.7393C338.498 37.7393 328.882 47.8624 328.882 60.35C328.882 72.8376 338.498 82.9608 350.36 82.9608Z" fill="#FD6584"/>
<path d="M398.429 49.6434C397.824 47.5525 396.65 45.6938 395.054 44.296C393.457 42.8982 391.507 42.0224 389.444 41.7764C389.396 41.7722 389.348 41.7722 389.299 41.7764C389.242 41.7574 389.182 41.7432 389.122 41.7341C381.931 40.7518 373.935 43.1398 368.554 48.3393C366.556 50.239 364.959 52.5583 363.864 55.1477C362.867 53.7133 361.552 52.5564 360.034 51.7773C358.516 50.9982 356.841 50.6204 355.153 50.6765C352.976 50.828 350.896 51.6826 349.198 53.1238C347.499 54.565 346.264 56.5226 345.661 58.7298C345.594 58.9994 345.613 59.2844 345.713 59.5423C345.813 59.8002 345.989 60.0172 346.216 60.1609C346.863 60.7434 347.632 61.1556 348.46 61.3634C350.238 61.7614 352.032 62.1255 353.825 62.4558C357.333 63.0994 360.859 63.6216 364.403 64.0224C366.744 64.2849 369.09 64.4938 371.442 64.6491C376.3 64.9709 381.183 65.0471 386.05 64.8862C388.463 64.8015 390.78 64.7168 392.984 63.599C394.59 62.7675 395.962 61.5095 396.965 59.9492C397.91 58.4484 398.53 56.7478 398.783 54.9673C399.036 53.1867 398.915 51.3695 398.429 49.6434Z" fill="#E6F0FF"/>
<path d="M354.244 82.5842C354.203 81.6368 354.052 80.6983 353.793 79.7897C353.185 77.699 352.009 75.8409 350.412 74.4434C348.814 73.0459 346.864 72.1698 344.8 71.9228C344.755 71.9185 344.709 71.9185 344.663 71.9228C344.603 71.9046 344.541 71.8905 344.478 71.8804C340.498 71.3672 336.459 71.8042 332.662 73.1591C326.822 75.2169 321.698 79.3663 319.228 85.2941C318.23 83.8587 316.914 82.7013 315.394 81.9222C313.875 81.1431 312.198 80.7657 310.509 80.8229C308.332 80.9744 306.252 81.829 304.554 83.2701C302.855 84.7113 301.62 86.669 301.017 88.8761C300.954 89.1458 300.974 89.4294 301.074 89.6865C301.173 89.9435 301.348 90.1607 301.572 90.3073C302.22 90.8881 302.989 91.3001 303.816 91.5098C305.602 91.9078 307.387 92.2719 309.189 92.6022C312.697 93.2457 316.22 93.768 319.759 94.1688C326.95 94.9814 334.185 95.27 341.414 95.0325C343.819 94.9478 346.143 94.8631 348.347 93.7454C349.951 92.9135 351.321 91.6555 352.321 90.0955C353.731 87.8835 354.407 85.2427 354.244 82.5842Z" fill="#E6F0FF"/>
<path d="M633.973 356.945C634.281 372.362 632.261 387.732 627.986 402.481C627.836 403.017 627.657 403.553 627.477 404.088H539.351C540.611 397.558 542.611 391.21 545.308 385.181C552.642 368.794 564.615 354.771 576.439 340.842C592.724 321.651 608.619 302.617 611.133 277.659C617.588 288.018 622.74 299.215 626.459 310.968C621.905 312.744 617.726 315.442 614.157 318.909C613.169 319.886 612.121 321.304 612.63 322.659C613.109 323.794 614.426 324.172 615.593 324.424C618.407 324.991 621.221 325.558 624.035 326.094C626.25 326.567 628.495 327.008 630.74 327.449C632.713 337.149 633.796 347.027 633.973 356.945Z" fill="#E6F0FF"/>
<path d="M708 346.736C693.871 355.78 684.891 369.771 677.557 385.433C671.175 386.964 665.283 390.223 660.465 394.887C659.447 395.864 658.399 397.282 658.938 398.637C659.387 399.772 660.734 400.15 661.901 400.402C664.685 400.969 667.529 401.536 670.313 402.072C670.043 402.734 669.774 403.427 669.505 404.089H576.11C580.35 398.069 585.045 392.421 590.149 387.198C591.257 386.032 592.394 384.929 593.562 383.795C605.467 372.468 619.138 363.385 633.973 356.946C657.344 346.66 682.901 343.135 708 346.736Z" fill="#E6F0FF"/>
<path d="M591.676 404.088H508.519C508.065 397.078 508.105 390.042 508.639 383.038C511.962 339.771 534.322 298.552 568.058 273.594C563.748 289.76 565.963 305.831 570.453 321.966C569.824 322.187 569.196 322.376 568.627 322.628C564.073 324.404 559.893 327.102 556.324 330.569C555.336 331.546 554.288 332.964 554.797 334.319C555.246 335.453 556.593 335.831 557.761 336.084C560.574 336.651 563.388 337.218 566.172 337.754C568.417 338.226 570.662 338.668 572.907 339.14C573.955 339.33 575.003 339.55 576.05 339.771C576.2 340.149 576.29 340.496 576.439 340.842C581.708 356.126 587.455 371.536 590.149 387.197C590.816 391.128 591.276 395.094 591.526 399.078C591.616 400.748 591.676 402.418 591.676 404.088Z" fill="#F2F2F2"/>
<path d="M138.463 356.945C138.772 372.362 136.751 387.732 132.476 402.481C132.326 403.017 132.147 403.553 131.967 404.088H43.8413C45.1011 397.558 47.1011 391.21 49.7983 385.181C57.1321 368.794 69.1057 354.771 80.9297 340.842C97.2139 321.651 113.109 302.617 115.623 277.659C122.078 288.018 127.23 299.215 130.95 310.968C126.395 312.744 122.216 315.442 118.647 318.909C117.659 319.886 116.611 321.304 117.12 322.659C117.599 323.794 118.916 324.172 120.084 324.424C122.897 324.991 125.711 325.558 128.525 326.094C130.74 326.567 132.985 327.008 135.23 327.449C137.203 337.149 138.286 347.027 138.463 356.945Z" fill="#E6F0FF"/>
<path d="M212.49 346.736C198.361 355.78 189.381 369.771 182.047 385.433C175.665 386.964 169.774 390.223 164.955 394.887C163.937 395.864 162.889 397.282 163.428 398.637C163.877 399.772 165.224 400.15 166.392 400.402C169.175 400.969 172.019 401.536 174.803 402.072C174.534 402.734 174.264 403.427 173.995 404.089H80.6006C84.8402 398.069 89.5352 392.421 94.6397 387.198C95.7472 386.032 96.8848 384.929 98.0522 383.795C109.958 372.468 123.628 363.385 138.463 356.946C161.834 346.66 187.391 343.135 212.49 346.736Z" fill="#F2F2F2"/>
<path d="M96.1663 404.088H13.0093C12.5552 397.078 12.5952 390.042 13.1291 383.038C16.4518 339.771 38.8125 298.552 72.5482 273.594C68.2377 289.76 70.4528 305.831 74.9429 321.966C74.3144 322.187 73.6858 322.376 73.117 322.628C68.5629 324.404 64.3832 327.102 60.8141 330.569C59.8263 331.546 58.7786 332.964 59.2875 334.319C59.7364 335.453 61.0834 335.831 62.2509 336.084C65.0647 336.651 67.8785 337.218 70.6623 337.754C72.9074 338.226 75.1525 338.668 77.3975 339.14C78.4451 339.33 79.493 339.55 80.5406 339.771C80.6902 340.149 80.7801 340.496 80.9297 340.842C86.1982 356.126 91.9454 371.536 94.6396 387.197C95.3064 391.128 95.7662 395.094 96.0166 399.078C96.1064 400.748 96.1663 402.418 96.1663 404.088Z" fill="#E6F0FF"/>
<path d="M405.747 367.334L480.049 374.278L480.846 374.354V40.588C480.58 40.3932 480.315 40.1985 480.049 40.0037C464.564 28.601 447.813 19.2334 430.169 12.1094L426.372 67.2375L426.026 72.2845L422.269 126.955L421.111 143.773L405.884 365.387L405.747 367.334Z" fill="#E6F0FF"/>
<path d="M221.998 34.3722C221.467 34.7278 220.936 35.0835 220.405 35.4561V374.354L221.998 374.202L295.496 367.334L295.359 365.386L280.132 143.773L278.974 126.955L275.217 72.2844L274.871 67.2373L270.889 9.4248C253.718 15.6907 237.308 24.0642 221.998 34.3722Z" fill="#E6F0FF"/>
<path d="M220.405 35.456C219.336 36.1843 218.266 36.9295 217.212 37.6831V378.978C217.212 387.505 222.014 394.652 228.433 396.473C229.482 396.772 230.564 396.923 231.651 396.922H470.397C471.481 396.924 472.56 396.773 473.606 396.473C475.992 395.776 478.155 394.413 479.864 392.527C483.125 388.858 484.907 384.001 484.835 378.978V43.6194C483.516 42.5947 482.189 41.5785 480.846 40.5877C480.58 40.393 480.315 40.1982 480.049 40.0034V378.978C480.051 380.076 479.927 381.171 479.679 382.238C478.545 387.277 474.805 390.969 470.397 390.969H231.651C226.326 390.969 221.998 385.591 221.998 378.978V34.3721C221.467 34.7277 220.936 35.0834 220.405 35.456Z" fill="#E6F0FF"/>
<path d="M482.442 67.2412H219.603V72.2874H482.442V67.2412Z" fill="#E6F0FF"/>
<path d="M401.942 2.87077C400.349 2.45582 398.757 2.06628 397.148 1.70215V138.726H401.942V2.87077Z" fill="#E6F0FF"/>
<path d="M304.9 0C303.299 0.313324 301.698 0.63512 300.105 0.982317V138.726H304.9V0Z" fill="#E6F0FF"/>
<path d="M168.071 388.09C168.07 390.986 168.597 393.855 169.624 396.541C170.018 397.583 170.489 398.591 171.031 399.556C171.732 400.814 172.546 402 173.461 403.096C175.482 405.52 177.971 407.462 180.762 408.793C183.553 410.123 186.581 410.811 189.645 410.81H504.415C510.136 410.81 515.624 408.417 519.67 404.158C523.716 399.899 525.989 394.122 525.989 388.098C525.989 382.075 523.716 376.298 519.67 372.039C515.624 367.78 510.136 365.387 504.415 365.387H189.645C183.927 365.393 178.444 367.786 174.399 372.042C170.355 376.299 168.079 382.07 168.071 388.09Z" fill="#E6F0FF"/>
<path d="M219.603 143.775L480.844 143.775V126.955L219.603 126.955V143.775Z" fill="#E6F0FF"/>
<path d="M361.408 131.16H339.039C339.039 128.707 339.965 126.353 341.613 124.618C343.261 122.883 345.496 121.909 347.827 121.909H352.62C353.774 121.909 354.917 122.148 355.983 122.613C357.049 123.078 358.018 123.759 358.834 124.618C359.65 125.478 360.298 126.497 360.739 127.62C361.181 128.742 361.408 129.945 361.408 131.16Z" fill="#E6F0FF"/>
<path d="M0 401.063C6.98802 409.78 14.5463 417.972 22.6197 425.579H671.432C679.505 417.972 687.064 409.78 694.052 401.063H0Z" fill="#3F3D56"/>
<path d="M319.097 319.083V405.933H376.893V319.083C376.894 318.458 376.705 317.849 376.353 317.346C376.001 316.843 375.505 316.472 374.939 316.288C374.671 316.195 374.391 316.149 374.11 316.153H321.888C321.522 316.152 321.16 316.227 320.821 316.374C320.483 316.521 320.175 316.736 319.916 317.009C319.657 317.281 319.451 317.604 319.31 317.96C319.17 318.316 319.098 318.697 319.097 319.083ZM341.653 348.925C341.668 347.213 342.325 345.576 343.48 344.371C344.635 343.166 346.196 342.49 347.822 342.49C349.449 342.49 351.009 343.166 352.165 344.371C353.32 345.576 353.977 347.213 353.992 348.925V359.002C353.984 360.719 353.33 362.362 352.174 363.573C351.018 364.784 349.453 365.464 347.822 365.464C346.191 365.464 344.627 364.784 343.471 363.573C342.315 362.362 341.661 360.719 341.653 359.002V348.925Z" fill="#2F2E41"/>
<path d="M318.92 403.155V411.53C318.921 411.964 319.085 412.38 319.376 412.687C319.666 412.995 320.06 413.17 320.472 413.173H375.517C375.93 413.171 376.325 412.997 376.616 412.689C376.907 412.381 377.07 411.965 377.07 411.53V403.155H318.92Z" fill="#3F3D56"/>
<path d="M228.176 188.232V346.808C228.177 348.829 228.941 350.766 230.298 352.195C231.655 353.624 233.496 354.428 235.415 354.429H458.636C460.556 354.428 462.396 353.624 463.754 352.195C465.111 350.766 465.874 348.829 465.876 346.808V188.232C465.871 186.213 465.107 184.278 463.75 182.851C462.393 181.424 460.554 180.622 458.636 180.619H235.415C233.497 180.622 231.659 181.424 230.302 182.851C228.945 184.278 228.18 186.213 228.176 188.232Z" fill="#3F3D56"/>
<path d="M233.413 190.205V344.851C233.414 345.931 233.823 346.966 234.548 347.729C235.273 348.493 236.256 348.923 237.282 348.925H456.778C457.804 348.923 458.787 348.493 459.512 347.729C460.237 346.966 460.646 345.931 460.647 344.851V190.205C460.647 189.124 460.24 188.087 459.514 187.322C458.789 186.556 457.805 186.125 456.778 186.123H237.282C236.255 186.125 235.271 186.556 234.545 187.322C233.82 188.087 233.413 189.124 233.413 190.205Z" fill="#0047FF"/>
<path d="M278.169 415.146C278.393 415.44 278.677 415.678 279 415.841C279.323 416.004 279.677 416.087 280.035 416.086H410.622C410.979 416.085 411.331 416.001 411.654 415.839C411.976 415.677 412.26 415.441 412.485 415.149C412.71 414.857 412.87 414.516 412.954 414.151C413.038 413.786 413.044 413.405 412.97 413.037L410.943 402.901C410.859 402.487 410.678 402.103 410.417 401.782C410.156 401.461 409.822 401.214 409.447 401.063C409.176 400.951 408.886 400.893 408.594 400.894H282.054C281.763 400.893 281.473 400.951 281.202 401.063C280.827 401.214 280.493 401.461 280.232 401.782C279.971 402.102 279.79 402.487 279.706 402.901L277.679 413.037C277.606 413.405 277.613 413.785 277.698 414.15C277.783 414.514 277.944 414.855 278.169 415.146Z" fill="#2F2E41"/>
<path d="M404.038 405.26H407.274C407.491 405.26 407.667 405.075 407.667 404.846V403.133C407.667 402.904 407.491 402.719 407.274 402.719H404.038C403.821 402.719 403.645 402.904 403.645 403.133V404.846C403.645 405.075 403.821 405.26 404.038 405.26Z" fill="#3F3D56"/>
<path d="M395.994 405.26H399.23C399.447 405.26 399.623 405.075 399.623 404.846V403.133C399.623 402.904 399.447 402.719 399.23 402.719H395.994C395.777 402.719 395.601 402.904 395.601 403.133V404.846C395.601 405.075 395.777 405.26 395.994 405.26Z" fill="#3F3D56"/>
<path d="M387.95 405.26H391.186C391.403 405.26 391.579 405.075 391.579 404.846V403.133C391.579 402.904 391.403 402.719 391.186 402.719H387.95C387.733 402.719 387.557 402.904 387.557 403.133V404.846C387.557 405.075 387.733 405.26 387.95 405.26Z" fill="#3F3D56"/>
<path d="M379.906 405.26H383.142C383.359 405.26 383.535 405.075 383.535 404.846V403.133C383.535 402.904 383.359 402.719 383.142 402.719H379.906C379.689 402.719 379.513 402.904 379.513 403.133V404.846C379.513 405.075 379.689 405.26 379.906 405.26Z" fill="#3F3D56"/>
<path d="M371.862 405.26H375.098C375.315 405.26 375.491 405.075 375.491 404.846V403.133C375.491 402.904 375.315 402.719 375.098 402.719H371.862C371.645 402.719 371.469 402.904 371.469 403.133V404.846C371.469 405.075 371.645 405.26 371.862 405.26Z" fill="#3F3D56"/>
<path d="M363.818 405.26H367.055C367.271 405.26 367.447 405.075 367.447 404.846V403.133C367.447 402.904 367.271 402.719 367.055 402.719H363.818C363.601 402.719 363.425 402.904 363.425 403.133V404.846C363.425 405.075 363.601 405.26 363.818 405.26Z" fill="#3F3D56"/>
<path d="M355.774 405.26H359.011C359.227 405.26 359.403 405.075 359.403 404.846V403.133C359.403 402.904 359.227 402.719 359.011 402.719H355.774C355.557 402.719 355.381 402.904 355.381 403.133V404.846C355.381 405.075 355.557 405.26 355.774 405.26Z" fill="#3F3D56"/>
<path d="M347.73 405.26H350.966C351.183 405.26 351.359 405.075 351.359 404.846V403.133C351.359 402.904 351.183 402.719 350.966 402.719H347.73C347.513 402.719 347.337 402.904 347.337 403.133V404.846C347.337 405.075 347.513 405.26 347.73 405.26Z" fill="#3F3D56"/>
<path d="M339.686 405.26H342.922C343.139 405.26 343.315 405.075 343.315 404.846V403.133C343.315 402.904 343.139 402.719 342.922 402.719H339.686C339.469 402.719 339.293 402.904 339.293 403.133V404.846C339.293 405.075 339.469 405.26 339.686 405.26Z" fill="#3F3D56"/>
<path d="M331.642 405.26H334.878C335.095 405.26 335.271 405.075 335.271 404.846V403.133C335.271 402.904 335.095 402.719 334.878 402.719H331.642C331.425 402.719 331.249 402.904 331.249 403.133V404.846C331.249 405.075 331.425 405.26 331.642 405.26Z" fill="#3F3D56"/>
<path d="M323.598 405.26H326.834C327.051 405.26 327.227 405.075 327.227 404.846V403.133C327.227 402.904 327.051 402.719 326.834 402.719H323.598C323.381 402.719 323.205 402.904 323.205 403.133V404.846C323.205 405.075 323.381 405.26 323.598 405.26Z" fill="#3F3D56"/>
<path d="M315.554 405.26H318.79C319.007 405.26 319.183 405.075 319.183 404.846V403.133C319.183 402.904 319.007 402.719 318.79 402.719H315.554C315.337 402.719 315.161 402.904 315.161 403.133V404.846C315.161 405.075 315.337 405.26 315.554 405.26Z" fill="#3F3D56"/>
<path d="M307.51 405.26H310.746C310.963 405.26 311.139 405.075 311.139 404.846V403.133C311.139 402.904 310.963 402.719 310.746 402.719H307.51C307.293 402.719 307.117 402.904 307.117 403.133V404.846C307.117 405.075 307.293 405.26 307.51 405.26Z" fill="#3F3D56"/>
<path d="M299.466 405.26H302.702C302.919 405.26 303.095 405.075 303.095 404.846V403.133C303.095 402.904 302.919 402.719 302.702 402.719H299.466C299.249 402.719 299.073 402.904 299.073 403.133V404.846C299.073 405.075 299.249 405.26 299.466 405.26Z" fill="#3F3D56"/>
<path d="M291.422 405.26H294.659C294.875 405.26 295.051 405.075 295.051 404.846V403.133C295.051 402.904 294.875 402.719 294.659 402.719H291.422C291.205 402.719 291.029 402.904 291.029 403.133V404.846C291.029 405.075 291.205 405.26 291.422 405.26Z" fill="#3F3D56"/>
<path d="M283.378 405.26H286.615C286.831 405.26 287.007 405.075 287.007 404.846V403.133C287.007 402.904 286.831 402.719 286.615 402.719H283.378C283.161 402.719 282.985 402.904 282.985 403.133V404.846C282.985 405.075 283.161 405.26 283.378 405.26Z" fill="#3F3D56"/>
<path d="M404.133 409.494H407.369C407.586 409.494 407.762 409.309 407.762 409.081V407.367C407.762 407.139 407.586 406.954 407.369 406.954H404.133C403.916 406.954 403.74 407.139 403.74 407.367V409.081C403.74 409.309 403.916 409.494 404.133 409.494Z" fill="#3F3D56"/>
<path d="M396.089 409.494H399.326C399.542 409.494 399.718 409.309 399.718 409.081V407.367C399.718 407.139 399.542 406.954 399.326 406.954H396.089C395.872 406.954 395.696 407.139 395.696 407.367V409.081C395.696 409.309 395.872 409.494 396.089 409.494Z" fill="#3F3D56"/>
<path d="M388.045 409.494H391.282C391.498 409.494 391.674 409.309 391.674 409.081V407.367C391.674 407.139 391.498 406.954 391.282 406.954H388.045C387.828 406.954 387.652 407.139 387.652 407.367V409.081C387.652 409.309 387.828 409.494 388.045 409.494Z" fill="#3F3D56"/>
<path d="M380.001 409.494H383.237C383.454 409.494 383.63 409.309 383.63 409.081V407.367C383.63 407.139 383.454 406.954 383.237 406.954H380.001C379.784 406.954 379.608 407.139 379.608 407.367V409.081C379.608 409.309 379.784 409.494 380.001 409.494Z" fill="#3F3D56"/>
<path d="M371.957 409.494H375.193C375.41 409.494 375.586 409.309 375.586 409.081V407.367C375.586 407.139 375.41 406.954 375.193 406.954H371.957C371.74 406.954 371.564 407.139 371.564 407.367V409.081C371.564 409.309 371.74 409.494 371.957 409.494Z" fill="#3F3D56"/>
<path d="M363.913 409.494H367.149C367.366 409.494 367.542 409.309 367.542 409.081V407.367C367.542 407.139 367.366 406.954 367.149 406.954H363.913C363.696 406.954 363.52 407.139 363.52 407.367V409.081C363.52 409.309 363.696 409.494 363.913 409.494Z" fill="#3F3D56"/>
<path d="M355.869 409.494H359.105C359.322 409.494 359.498 409.309 359.498 409.081V407.367C359.498 407.139 359.322 406.954 359.105 406.954H355.869C355.652 406.954 355.476 407.139 355.476 407.367V409.081C355.476 409.309 355.652 409.494 355.869 409.494Z" fill="#3F3D56"/>
<path d="M347.825 409.494H351.061C351.278 409.494 351.454 409.309 351.454 409.081V407.367C351.454 407.139 351.278 406.954 351.061 406.954H347.825C347.608 406.954 347.432 407.139 347.432 407.367V409.081C347.432 409.309 347.608 409.494 347.825 409.494Z" fill="#3F3D56"/>
<path d="M339.781 409.494H343.017C343.234 409.494 343.41 409.309 343.41 409.081V407.367C343.41 407.139 343.234 406.954 343.017 406.954H339.781C339.564 406.954 339.388 407.139 339.388 407.367V409.081C339.388 409.309 339.564 409.494 339.781 409.494Z" fill="#3F3D56"/>
<path d="M331.737 409.494H334.973C335.19 409.494 335.366 409.309 335.366 409.081V407.367C335.366 407.139 335.19 406.954 334.973 406.954H331.737C331.52 406.954 331.344 407.139 331.344 407.367V409.081C331.344 409.309 331.52 409.494 331.737 409.494Z" fill="#3F3D56"/>
<path d="M323.693 409.494H326.93C327.146 409.494 327.322 409.309 327.322 409.081V407.367C327.322 407.139 327.146 406.954 326.93 406.954H323.693C323.476 406.954 323.3 407.139 323.3 407.367V409.081C323.3 409.309 323.476 409.494 323.693 409.494Z" fill="#3F3D56"/>
<path d="M315.649 409.494H318.886C319.102 409.494 319.278 409.309 319.278 409.081V407.367C319.278 407.139 319.102 406.954 318.886 406.954H315.649C315.432 406.954 315.256 407.139 315.256 407.367V409.081C315.256 409.309 315.432 409.494 315.649 409.494Z" fill="#3F3D56"/>
<path d="M307.605 409.494H310.842C311.059 409.494 311.234 409.309 311.234 409.081V407.367C311.234 407.139 311.059 406.954 310.842 406.954H307.605C307.388 406.954 307.212 407.139 307.212 407.367V409.081C307.212 409.309 307.388 409.494 307.605 409.494Z" fill="#3F3D56"/>
<path d="M299.561 409.494H302.798C303.015 409.494 303.19 409.309 303.19 409.081V407.367C303.19 407.139 303.015 406.954 302.798 406.954H299.561C299.344 406.954 299.168 407.139 299.168 407.367V409.081C299.168 409.309 299.344 409.494 299.561 409.494Z" fill="#3F3D56"/>
<path d="M291.517 409.494H294.754C294.971 409.494 295.146 409.309 295.146 409.081V407.367C295.146 407.139 294.971 406.954 294.754 406.954H291.517C291.3 406.954 291.124 407.139 291.124 407.367V409.081C291.124 409.309 291.3 409.494 291.517 409.494Z" fill="#3F3D56"/>
<path d="M283.473 409.494H286.709C286.926 409.494 287.102 409.309 287.102 409.081V407.367C287.102 407.139 286.926 406.954 286.709 406.954H283.473C283.256 406.954 283.08 407.139 283.08 407.367V409.081C283.08 409.309 283.256 409.494 283.473 409.494Z" fill="#3F3D56"/>
<path d="M337.368 414.575H368.758C368.975 414.575 369.151 414.39 369.151 414.162V412.448C369.151 412.22 368.975 412.035 368.758 412.035H337.368C337.151 412.035 336.975 412.22 336.975 412.448V414.162C336.975 414.39 337.151 414.575 337.368 414.575Z" fill="#3F3D56"/>
<path d="M248.312 207.427H453.694C453.907 207.422 454.11 207.329 454.26 207.168C454.409 207.008 454.493 206.792 454.493 206.567C454.493 206.342 454.409 206.126 454.26 205.965C454.11 205.805 453.907 205.712 453.694 205.707H248.312C248.098 205.712 247.895 205.805 247.746 205.965C247.596 206.126 247.513 206.342 247.513 206.567C247.513 206.792 247.596 207.008 247.746 207.168C247.895 207.329 248.098 207.422 248.312 207.427Z" fill="#3F3D56"/>
<path d="M439.713 201.316C442.356 201.316 444.499 199.01 444.499 196.165C444.499 193.32 442.356 191.014 439.713 191.014C437.069 191.014 434.926 193.32 434.926 196.165C434.926 199.01 437.069 201.316 439.713 201.316Z" fill="#3F3D56"/>
<path d="M423.178 201.316C425.821 201.316 427.964 199.01 427.964 196.165C427.964 193.32 425.821 191.014 423.178 191.014C420.534 191.014 418.391 193.32 418.391 196.165C418.391 199.01 420.534 201.316 423.178 201.316Z" fill="#3F3D56"/>
<path d="M406.642 201.316C409.286 201.316 411.429 199.01 411.429 196.165C411.429 193.32 409.286 191.014 406.642 191.014C403.998 191.014 401.855 193.32 401.855 196.165C401.855 199.01 403.998 201.316 406.642 201.316Z" fill="#3F3D56"/>
<path d="M257.392 193.228C257.391 193.35 257.413 193.471 257.457 193.583C257.501 193.696 257.565 193.799 257.647 193.885C257.728 193.972 257.825 194.04 257.932 194.087C258.038 194.135 258.153 194.159 258.268 194.16H270.013C270.245 194.154 270.466 194.053 270.628 193.878C270.79 193.703 270.881 193.468 270.881 193.224C270.881 192.979 270.79 192.745 270.628 192.57C270.466 192.395 270.245 192.294 270.013 192.288H258.268C258.034 192.291 257.81 192.392 257.646 192.568C257.482 192.744 257.39 192.981 257.392 193.228Z" fill="#3F3D56"/>
<path d="M257.392 196.742C257.391 196.863 257.413 196.984 257.457 197.097C257.501 197.21 257.565 197.312 257.647 197.399C257.728 197.485 257.825 197.554 257.932 197.601C258.038 197.648 258.153 197.673 258.268 197.673H270.013C270.245 197.668 270.466 197.567 270.629 197.392C270.791 197.217 270.882 196.982 270.882 196.737C270.882 196.493 270.791 196.258 270.629 196.083C270.466 195.908 270.245 195.807 270.013 195.802H258.268C258.034 195.805 257.81 195.905 257.646 196.081C257.482 196.257 257.39 196.495 257.392 196.742Z" fill="#3F3D56"/>
<path d="M257.392 200.248C257.39 200.495 257.482 200.732 257.646 200.908C257.81 201.084 258.034 201.185 258.268 201.188H270.013C270.245 201.182 270.466 201.081 270.628 200.906C270.79 200.731 270.881 200.497 270.881 200.252C270.881 200.008 270.79 199.773 270.628 199.598C270.466 199.423 270.245 199.322 270.013 199.316H258.268C258.153 199.317 258.038 199.341 257.932 199.389C257.825 199.436 257.728 199.504 257.647 199.591C257.565 199.677 257.501 199.78 257.457 199.893C257.413 200.005 257.391 200.126 257.392 200.248Z" fill="#3F3D56"/>
<path d="M261.021 227.408H256.801C255.522 227.408 254.484 228.5 254.484 229.847C254.484 231.194 255.522 232.286 256.801 232.286H261.021C262.3 232.286 263.338 231.194 263.338 229.847C263.338 228.5 262.3 227.408 261.021 227.408Z" fill="#E6E6E6"/>
<path d="M309.285 227.408H305.065C303.786 227.408 302.749 228.5 302.749 229.847C302.749 231.194 303.786 232.286 305.065 232.286H309.285C310.565 232.286 311.602 231.194 311.602 229.847C311.602 228.5 310.565 227.408 309.285 227.408Z" fill="#E6E6E6"/>
<path d="M322.96 227.408H318.74C317.461 227.408 316.423 228.5 316.423 229.847C316.423 231.194 317.461 232.286 318.74 232.286H322.96C324.239 232.286 325.277 231.194 325.277 229.847C325.277 228.5 324.239 227.408 322.96 227.408Z" fill="#E6E6E6"/>
<path d="M296.157 227.002H269.929C268.649 227.002 267.612 228.094 267.612 229.441C267.612 230.788 268.649 231.88 269.929 231.88H296.157C297.436 231.88 298.474 230.788 298.474 229.441C298.474 228.094 297.436 227.002 296.157 227.002Z" fill="#E6E6E6"/>
<path d="M360.509 227.002H334.281C333.002 227.002 331.964 228.094 331.964 229.441C331.964 230.788 333.002 231.88 334.281 231.88H360.509C361.788 231.88 362.826 230.788 362.826 229.441C362.826 228.094 361.788 227.002 360.509 227.002Z" fill="#E6E6E6"/>
<path d="M273.892 238.417H269.672C268.392 238.417 267.355 239.509 267.355 240.856C267.355 242.203 268.392 243.295 269.672 243.295H273.892C275.171 243.295 276.208 242.203 276.208 240.856C276.208 239.509 275.171 238.417 273.892 238.417Z" fill="#E6E6E6"/>
<path d="M322.155 238.417H317.935C316.656 238.417 315.619 239.509 315.619 240.856C315.619 242.203 316.656 243.295 317.935 243.295H322.155C323.435 243.295 324.472 242.203 324.472 240.856C324.472 239.509 323.435 238.417 322.155 238.417Z" fill="#E6E6E6"/>
<path d="M335.83 238.417H331.61C330.331 238.417 329.293 239.509 329.293 240.856C329.293 242.203 330.331 243.295 331.61 243.295H335.83C337.11 243.295 338.147 242.203 338.147 240.856C338.147 239.509 337.11 238.417 335.83 238.417Z" fill="#E6E6E6"/>
<path d="M309.028 238.011H282.8C281.52 238.011 280.483 239.103 280.483 240.45C280.483 241.796 281.52 242.888 282.8 242.888H309.028C310.307 242.888 311.344 241.796 311.344 240.45C311.344 239.103 310.307 238.011 309.028 238.011Z" fill="#E6E6E6"/>
<path d="M373.38 238.011H347.152C345.872 238.011 344.835 239.103 344.835 240.45C344.835 241.796 345.872 242.888 347.152 242.888H373.38C374.659 242.888 375.696 241.796 375.696 240.45C375.696 239.103 374.659 238.011 373.38 238.011Z" fill="#E6E6E6"/>
<path d="M286.762 249.426H282.542C281.262 249.426 280.225 250.518 280.225 251.865C280.225 253.212 281.262 254.303 282.542 254.303H286.762C288.041 254.303 289.078 253.212 289.078 251.865C289.078 250.518 288.041 249.426 286.762 249.426Z" fill="#E6E6E6"/>
<path d="M335.026 249.426H330.806C329.526 249.426 328.489 250.518 328.489 251.865C328.489 253.212 329.526 254.303 330.806 254.303H335.026C336.305 254.303 337.343 253.212 337.343 251.865C337.343 250.518 336.305 249.426 335.026 249.426Z" fill="#E6E6E6"/>
<path d="M348.701 249.426H344.481C343.201 249.426 342.164 250.518 342.164 251.865C342.164 253.212 343.201 254.303 344.481 254.303H348.701C349.98 254.303 351.017 253.212 351.017 251.865C351.017 250.518 349.98 249.426 348.701 249.426Z" fill="#E6E6E6"/>
<path d="M321.898 249.02H295.67C294.39 249.02 293.353 250.111 293.353 251.458C293.353 252.805 294.39 253.897 295.67 253.897H321.898C323.177 253.897 324.214 252.805 324.214 251.458C324.214 250.111 323.177 249.02 321.898 249.02Z" fill="#E6E6E6"/>
<path d="M386.25 249.02H360.022C358.742 249.02 357.705 250.111 357.705 251.458C357.705 252.805 358.742 253.897 360.022 253.897H386.25C387.529 253.897 388.566 252.805 388.566 251.458C388.566 250.111 387.529 249.02 386.25 249.02Z" fill="#E6E6E6"/>
<path d="M299.632 260.435H295.412C294.133 260.435 293.096 261.526 293.096 262.873C293.096 264.22 294.133 265.312 295.412 265.312H299.632C300.912 265.312 301.949 264.22 301.949 262.873C301.949 261.526 300.912 260.435 299.632 260.435Z" fill="#E6E6E6"/>
<path d="M347.896 260.435H343.676C342.397 260.435 341.359 261.526 341.359 262.873C341.359 264.22 342.397 265.312 343.676 265.312H347.896C349.175 265.312 350.213 264.22 350.213 262.873C350.213 261.526 349.175 260.435 347.896 260.435Z" fill="#E6E6E6"/>
<path d="M361.571 260.435H357.351C356.071 260.435 355.034 261.526 355.034 262.873C355.034 264.22 356.071 265.312 357.351 265.312H361.571C362.85 265.312 363.887 264.22 363.887 262.873C363.887 261.526 362.85 260.435 361.571 260.435Z" fill="#E6E6E6"/>
<path d="M334.768 260.027H308.54C307.261 260.027 306.224 261.119 306.224 262.466C306.224 263.813 307.261 264.905 308.54 264.905H334.768C336.048 264.905 337.085 263.813 337.085 262.466C337.085 261.119 336.048 260.027 334.768 260.027Z" fill="#E6E6E6"/>
<path d="M309.285 304.21H305.065C303.786 304.21 302.749 305.302 302.749 306.649C302.749 307.996 303.786 309.088 305.065 309.088H309.285C310.565 309.088 311.602 307.996 311.602 306.649C311.602 305.302 310.565 304.21 309.285 304.21Z" fill="#E6E6E6"/>
<path d="M322.96 304.21H318.74C317.461 304.21 316.423 305.302 316.423 306.649C316.423 307.996 317.461 309.088 318.74 309.088H322.96C324.239 309.088 325.277 307.996 325.277 306.649C325.277 305.302 324.239 304.21 322.96 304.21Z" fill="#E6E6E6"/>
<path d="M360.509 304.616H334.281C333.002 304.616 331.964 305.708 331.964 307.055C331.964 308.402 333.002 309.494 334.281 309.494H360.509C361.788 309.494 362.826 308.402 362.826 307.055C362.826 305.708 361.788 304.616 360.509 304.616Z" fill="#E6E6E6"/>
<path d="M261.021 304.21H256.801C255.522 304.21 254.484 305.302 254.484 306.649C254.484 307.996 255.522 309.088 256.801 309.088H261.021C262.3 309.088 263.338 307.996 263.338 306.649C263.338 305.302 262.3 304.21 261.021 304.21Z" fill="#E6E6E6"/>
<path d="M296.157 304.616H269.929C268.649 304.616 267.612 305.708 267.612 307.055C267.612 308.402 268.649 309.494 269.929 309.494H296.157C297.436 309.494 298.474 308.402 298.474 307.055C298.474 305.708 297.436 304.616 296.157 304.616Z" fill="#E6E6E6"/>
<path d="M273.892 293.201H269.672C268.392 293.201 267.355 294.293 267.355 295.64C267.355 296.987 268.392 298.079 269.672 298.079H273.892C275.171 298.079 276.208 296.987 276.208 295.64C276.208 294.293 275.171 293.201 273.892 293.201Z" fill="#E6E6E6"/>
<path d="M322.155 293.201H317.935C316.656 293.201 315.619 294.293 315.619 295.64C315.619 296.987 316.656 298.079 317.935 298.079H322.155C323.435 298.079 324.472 296.987 324.472 295.64C324.472 294.293 323.435 293.201 322.155 293.201Z" fill="#E6E6E6"/>
<path d="M335.83 293.201H331.61C330.331 293.201 329.293 294.293 329.293 295.64C329.293 296.987 330.331 298.079 331.61 298.079H335.83C337.11 298.079 338.147 296.987 338.147 295.64C338.147 294.293 337.11 293.201 335.83 293.201Z" fill="#E6E6E6"/>
<path d="M309.028 293.607H282.8C281.52 293.607 280.483 294.699 280.483 296.046C280.483 297.393 281.52 298.485 282.8 298.485H309.028C310.307 298.485 311.344 297.393 311.344 296.046C311.344 294.699 310.307 293.607 309.028 293.607Z" fill="#E6E6E6"/>
<path d="M286.762 282.192H282.542C281.262 282.192 280.225 283.284 280.225 284.631C280.225 285.978 281.262 287.07 282.542 287.07H286.762C288.041 287.07 289.078 285.978 289.078 284.631C289.078 283.284 288.041 282.192 286.762 282.192Z" fill="#E6E6E6"/>
<path d="M335.026 282.192H330.806C329.526 282.192 328.489 283.284 328.489 284.631C328.489 285.978 329.526 287.07 330.806 287.07H335.026C336.305 287.07 337.343 285.978 337.343 284.631C337.343 283.284 336.305 282.192 335.026 282.192Z" fill="#E6E6E6"/>
<path d="M348.701 282.192H344.481C343.201 282.192 342.164 283.284 342.164 284.631C342.164 285.978 343.201 287.07 344.481 287.07H348.701C349.98 287.07 351.017 285.978 351.017 284.631C351.017 283.284 349.98 282.192 348.701 282.192Z" fill="#E6E6E6"/>
<path d="M321.898 282.599H295.67C294.39 282.599 293.353 283.691 293.353 285.037C293.353 286.384 294.39 287.476 295.67 287.476H321.898C323.177 287.476 324.214 286.384 324.214 285.037C324.214 283.691 323.177 282.599 321.898 282.599Z" fill="#E6E6E6"/>
<path d="M299.632 271.184H295.412C294.133 271.184 293.096 272.275 293.096 273.622C293.096 274.969 294.133 276.061 295.412 276.061H299.632C300.912 276.061 301.949 274.969 301.949 273.622C301.949 272.275 300.912 271.184 299.632 271.184Z" fill="#E6E6E6"/>
<path d="M347.896 271.184H343.676C342.397 271.184 341.359 272.275 341.359 273.622C341.359 274.969 342.397 276.061 343.676 276.061H347.896C349.175 276.061 350.213 274.969 350.213 273.622C350.213 272.275 349.175 271.184 347.896 271.184Z" fill="#E6E6E6"/>
<path d="M361.571 271.184H357.351C356.071 271.184 355.034 272.275 355.034 273.622C355.034 274.969 356.071 276.061 357.351 276.061H361.571C362.85 276.061 363.887 274.969 363.887 273.622C363.887 272.275 362.85 271.184 361.571 271.184Z" fill="#E6E6E6"/>
<path d="M334.768 271.59H308.54C307.261 271.59 306.224 272.682 306.224 274.029C306.224 275.376 307.261 276.467 308.54 276.467H334.768C336.048 276.467 337.085 275.376 337.085 274.029C337.085 272.682 336.048 271.59 334.768 271.59Z" fill="#E6E6E6"/>
<path d="M281.469 462.324C281.292 462.418 281.115 462.511 280.938 462.595C279.82 463.18 278.693 463.755 277.559 464.323C274.165 466.025 270.727 467.642 267.247 469.175C258.089 473.207 248.693 476.61 239.117 479.362C237.508 468.803 235.948 443.898 234.452 425.581C234.17 422.134 233.888 418.925 233.607 416.088C233.34 412.364 232.832 408.663 232.087 405.011C232.014 404.725 231.908 404.45 231.773 404.19C231.926 405.655 232.087 410.025 232.239 416.088C232.32 418.925 232.392 422.134 232.473 425.581C232.851 443.212 233.245 467.202 233.639 480.861C232.521 481.149 231.395 481.437 230.269 481.708C229.561 481.886 228.845 482.055 228.129 482.216C227.26 482.419 226.391 482.623 225.523 482.809C224.614 483.012 223.705 483.207 222.796 483.393C207.942 486.465 192.839 488.008 177.701 488C176.696 488 175.698 487.991 174.693 487.983C174.387 487.983 174.081 487.975 173.768 487.966C172.883 487.949 171.966 487.932 171.033 487.907C153.144 487.386 135.372 484.689 118.071 479.87L118.771 425.581L118.892 416.088L118.94 412.489C118.541 413.647 118.303 414.859 118.232 416.088C117.95 418.4 117.661 421.677 117.371 425.581C116.269 440.62 115.135 464.882 113.961 478.685C100.053 474.519 89.8849 470.716 77.1754 464.026C76.6847 463.772 76.186 463.51 75.6953 463.247C75.7838 462.595 75.8803 461.943 75.9688 461.274C77.4087 450.74 75.7114 437.03 77.3041 425.581C78.5188 416.748 79.7736 408.263 81.0365 401.065C82.5649 392.402 84.1173 385.594 85.6538 382.283C87.4234 378.464 89.1931 374.704 90.9065 371.105C91.6466 369.555 92.3732 368.034 93.0864 366.54C93.4725 365.736 93.8586 364.94 94.2367 364.161C95.9581 360.613 97.583 357.335 99.0712 354.431C100.117 352.39 101.082 350.544 101.967 348.926C103.005 347.021 103.922 345.446 104.678 344.252C110.263 335.34 118.573 328.704 128.231 325.444L128.472 325.376L128.705 325.478L128.971 325.605L144.302 319.703L151.148 302.351L186.308 300.073L191.987 304.621L194.891 306.949L197.988 309.431L203.683 313.995L205.3 314.52L207.705 315.299L224.155 320.617L224.324 320.541L224.565 320.609C233.354 323.57 241.047 329.342 246.574 337.122C247.121 337.867 247.628 338.637 248.118 339.417C249.454 341.5 251.255 344.794 253.379 348.926C254.256 350.629 255.181 352.475 256.154 354.431C256.741 355.608 261.809 372.256 266.74 389.261C271.349 405.181 275.838 421.414 276.425 425.581C276.53 426.351 276.642 427.13 276.747 427.901C277.414 432.719 278.074 437.572 278.71 442.305C279.651 449.326 280.568 456.1 281.444 462.155C281.453 462.214 281.461 462.265 281.469 462.324Z" fill="#3F3D56"/>
<path opacity="0.2" d="M244.207 401.026L237.372 373.257L231.337 397.219L244.207 401.026Z" fill="black"/>
<path d="M12.7331 400.704C13.0875 401.79 13.7598 402.73 14.6534 403.389C15.547 404.048 16.616 404.392 17.7068 404.372L39.0168 403.794C40.1156 403.772 41.178 403.375 42.0452 402.665C42.9124 401.954 43.5377 400.967 43.8278 399.851L46.8434 365.904C47.9133 366.414 49.078 366.666 50.2524 366.641C52.3129 366.587 54.2684 365.673 55.6889 364.1C57.1093 362.528 57.8782 360.426 57.8265 358.257C57.7747 356.088 56.9066 354.029 55.4131 352.534C53.9195 351.039 51.9228 350.229 49.8623 350.284C49.393 350.282 48.9248 350.333 48.4657 350.436C47.9666 349.868 47.3598 349.416 46.6845 349.109C46.0093 348.802 45.2805 348.648 44.5451 348.656L11.7654 349.547C11.4935 349.557 11.2229 349.593 10.9568 349.652C10.238 349.793 9.55615 350.095 8.95728 350.537C8.35841 350.978 7.85636 351.55 7.48495 352.213C7.11353 352.876 6.88137 353.615 6.80407 354.381C6.72678 355.146 6.80615 355.921 7.03684 356.651L12.7331 400.704ZM47.4618 363.599L49.6077 355.509C49.8518 354.575 49.8574 353.589 49.624 352.652C49.7282 352.651 49.82 352.6 49.9241 352.599C51.3955 352.567 52.8188 353.151 53.8821 354.222C54.9454 355.293 55.5619 356.764 55.5964 358.313C55.6308 359.862 55.0804 361.362 54.0659 362.484C53.0514 363.606 51.6556 364.259 50.1844 364.3C49.2332 364.331 48.2919 364.089 47.4618 363.599Z" fill="#2F2E41"/>
<path d="M10.9565 349.652C11.6549 353.856 19.5066 356.811 28.9476 356.298C37.6293 355.877 44.7279 352.667 46.0284 348.864C45.5471 348.714 45.0466 348.644 44.5448 348.656L11.7651 349.547C11.4932 349.557 11.2227 349.593 10.9565 349.652Z" fill="#3F3D56"/>
<path d="M30.6781 382.05C30.7213 382.039 30.7623 382.02 30.7995 381.994L35.4273 378.805C35.4833 378.767 35.5292 378.714 35.5611 378.652C35.5929 378.591 35.6096 378.521 35.6096 378.451C35.6096 378.381 35.593 378.312 35.5612 378.25C35.5294 378.188 35.4835 378.135 35.4276 378.097L30.6174 374.78C30.5733 374.749 30.5238 374.728 30.4719 374.718C30.4199 374.707 30.3664 374.707 30.3146 374.719C30.2627 374.73 30.2135 374.752 30.1697 374.783C30.1259 374.814 30.0885 374.855 30.0594 374.901C30.0304 374.948 30.0104 375 30.0006 375.055C29.9908 375.109 29.9914 375.166 30.0023 375.22C30.0132 375.275 30.0342 375.327 30.0641 375.372C30.094 375.418 30.1323 375.458 30.1767 375.488L34.4729 378.45L30.3592 381.285C30.2796 381.34 30.221 381.423 30.1939 381.519C30.1667 381.615 30.1728 381.718 30.2111 381.81C30.2493 381.902 30.3173 381.976 30.4028 382.02C30.4883 382.064 30.5859 382.075 30.6781 382.05Z" fill="#7469B6"/>
<path d="M23.3688 382.405C23.4465 382.384 23.5165 382.339 23.5699 382.276C23.6233 382.213 23.6576 382.135 23.6685 382.052C23.6794 381.968 23.6664 381.883 23.631 381.807C23.5957 381.732 23.5397 381.669 23.4702 381.627L19.2044 379.052L23.3275 375.828C23.3698 375.795 23.4056 375.753 23.4327 375.706C23.4598 375.658 23.4777 375.605 23.4854 375.55C23.4931 375.495 23.4904 375.439 23.4775 375.385C23.4647 375.331 23.4418 375.281 23.4103 375.236C23.3789 375.192 23.3394 375.154 23.2941 375.125C23.2488 375.097 23.1986 375.078 23.1464 375.07C23.0941 375.062 23.0409 375.065 22.9897 375.078C22.9385 375.092 22.8904 375.116 22.848 375.149L18.2319 378.759C18.1783 378.8 18.1354 378.856 18.1071 378.919C18.0789 378.983 18.0661 379.053 18.07 379.123C18.074 379.194 18.0944 379.262 18.1296 379.321C18.1648 379.381 18.2135 379.431 18.2715 379.466L23.0699 382.361C23.1604 382.416 23.2676 382.432 23.3688 382.405Z" fill="#7469B6"/>
<path d="M30.2177 384.845C30.2566 384.835 30.2937 384.818 30.3279 384.796C30.373 384.767 30.4123 384.729 30.4436 384.684C30.4748 384.64 30.4973 384.589 30.5098 384.535C30.5223 384.481 30.5246 384.424 30.5165 384.37C30.5084 384.315 30.4901 384.262 30.4626 384.214L23.9023 372.86C23.8466 372.764 23.7572 372.696 23.6537 372.67C23.5502 372.644 23.4411 372.662 23.3503 372.72C23.2594 372.778 23.1941 372.872 23.1688 372.981C23.1435 373.09 23.1601 373.205 23.2151 373.301L29.7753 384.655C29.8201 384.732 29.8872 384.792 29.9668 384.827C30.0464 384.861 30.1343 384.867 30.2177 384.845Z" fill="#7469B6"/>
<path d="M631.573 463.245C631.082 463.508 630.584 463.77 630.093 464.024C617.384 470.714 607.216 474.517 593.308 478.683C592.133 464.88 590.999 440.618 589.897 425.579C589.608 421.675 589.318 418.398 589.037 416.086C588.966 414.857 588.727 413.645 588.329 412.487L588.377 416.086L588.498 425.579L589.197 479.869C571.897 484.687 554.125 487.384 536.236 487.905C535.303 487.93 534.386 487.947 533.501 487.964C533.187 487.973 532.881 487.981 532.576 487.981C531.57 487.99 530.573 487.998 529.567 487.998C510.715 488.013 491.932 485.616 473.629 480.859C474.024 467.2 474.418 443.21 474.796 425.579C474.876 422.132 474.949 418.923 475.029 416.086C475.182 410.023 475.343 405.653 475.496 404.188C475.36 404.448 475.255 404.723 475.182 405.009C474.437 408.661 473.929 412.362 473.662 416.086C473.38 418.923 473.098 422.132 472.817 425.579C471.321 443.896 469.76 468.801 468.151 479.36C458.575 476.608 449.179 473.205 440.022 469.173C435.195 467.056 430.455 464.773 425.8 462.322C426.685 456.225 427.61 449.391 428.559 442.304C429.299 436.808 430.063 431.159 430.843 425.579C432.05 416.958 473.042 323.867 482.703 320.607L482.944 320.539L483.113 320.615L499.563 315.297L501.968 314.518L503.585 313.993L509.28 309.429L512.377 306.947L515.281 304.619L520.96 300.071L556.12 302.349L562.966 319.701L578.298 325.603L578.563 325.476L578.796 325.374L579.038 325.442C588.696 328.702 597.006 335.338 602.591 344.25C603.347 345.444 604.264 347.019 605.301 348.924C606.186 350.542 607.152 352.388 608.197 354.429C609.685 357.333 611.31 360.611 613.032 364.159C613.41 364.938 613.796 365.734 614.182 366.538C614.898 368.029 615.625 369.55 616.362 371.103C618.075 374.702 619.845 378.462 621.615 382.281C623.151 385.592 624.704 392.4 626.232 401.063C627.495 408.261 628.75 416.746 629.964 425.579C631.557 437.028 629.86 450.738 631.3 461.272C631.388 461.941 631.485 462.593 631.573 463.245Z" fill="#3F3D56"/>
<path d="M528.453 293.843C551.038 293.843 569.346 274.569 569.346 250.794C569.346 227.018 551.038 207.744 528.453 207.744C505.869 207.744 487.561 227.018 487.561 250.794C487.561 274.569 505.869 293.843 528.453 293.843Z" fill="#FFB6B6"/>
<path opacity="0.2" d="M463.06 401.026L469.895 373.257L475.93 397.219L463.06 401.026Z" fill="black"/>
<path d="M644.942 382.933C642.497 418.398 645.031 434.014 631.533 463.254C619.252 469.582 606.46 474.746 593.308 478.684C591.941 479.09 590.57 479.485 589.197 479.869C571.897 484.688 554.125 487.385 536.236 487.905C535.303 487.931 534.386 487.948 533.501 487.965C533.187 487.973 532.882 487.982 532.576 487.982C531.57 487.99 530.573 487.999 529.567 487.999C510.716 488.013 491.932 485.616 473.629 480.86C471.795 480.386 469.969 479.886 468.152 479.361C458.576 476.609 449.179 473.206 440.022 469.174C435.195 467.057 430.455 464.773 425.8 462.323C424.746 461.764 423.692 461.205 422.655 460.629C417.322 450.755 414.289 438.747 414.225 424.318C417.917 399.455 636.786 361.492 644.942 382.933Z" fill="#2F2E41"/>
<path opacity="0.2" d="M644.936 389.007C645.061 386.811 645.2 384.543 645.363 382.181C637.207 360.74 418.338 398.703 414.646 423.566C414.656 425.845 414.748 428.057 414.904 430.217C423.845 405.678 631.774 369.596 644.936 389.007Z" fill="black"/>
<path d="M408.781 384.606L426.747 375.15L411.776 332.596L407.83 311.136C407.317 308.348 406.119 305.75 404.354 303.603C402.589 301.455 400.319 299.833 397.772 298.898C395.225 297.963 392.489 297.748 389.839 298.275C387.188 298.801 384.715 300.051 382.667 301.899C379.632 304.638 377.726 308.511 377.352 312.701C376.978 316.891 378.165 321.07 380.662 324.356L395.308 343.629L408.781 384.606Z" fill="#FFB6B6"/>
<path d="M426.747 367.269L402.793 379.877L420.971 439.84C422.277 444.146 424.617 448.024 427.765 451.097C430.912 454.171 434.761 456.336 438.938 457.383C444.088 458.674 449.495 458.205 454.374 456.043C459.254 453.881 463.353 450.14 466.076 445.361L514.28 358.38C517.696 352.387 518.75 345.225 517.218 338.424C515.685 331.623 511.688 325.722 506.079 321.982C503.062 319.971 499.676 318.651 496.143 318.108C492.61 317.565 489.007 317.811 485.57 318.831C482.133 319.851 478.938 321.621 476.194 324.026C473.45 326.432 471.218 329.418 469.642 332.792L440.221 398.79L426.747 367.269Z" fill="#3F3D56"/>
<path d="M168.528 290.872C193.377 290.872 213.522 269.665 213.522 243.505C213.522 217.345 193.377 196.138 168.528 196.138C143.678 196.138 123.534 217.345 123.534 243.505C123.534 269.665 143.678 290.872 168.528 290.872Z" fill="#A0616A"/>
<path d="M124.074 210.864C127.732 205.673 132.99 201.983 137.012 197.099C139.219 194.419 141.052 191.383 143.533 188.985C148.142 184.528 154.588 182.701 160.843 182.474C167.699 182.289 174.499 183.805 180.694 186.9C186.889 189.995 192.305 194.582 196.503 200.29C199.773 198.272 203.042 196.254 206.312 194.236C207.604 197.815 208.895 201.394 210.187 204.973C211.247 204.003 212.599 203.46 214.004 203.439C215.408 203.418 216.774 203.921 217.86 204.86C218.945 205.798 219.68 207.111 219.934 208.565C220.188 210.019 219.945 211.521 219.247 212.805C220.026 210.273 223.591 209.736 225.556 211.408C227.521 213.081 228.048 216.056 227.727 218.695C227.325 221.59 226.109 224.292 224.236 226.454C222.363 228.616 219.919 230.138 217.218 230.826C212.951 231.827 207.985 230.776 204.571 233.648C201.833 235.951 201.006 240.145 198.212 242.372C194.77 245.116 189.903 243.847 185.624 244.453C178.136 245.514 172.208 253.576 173.108 261.473C172.43 258.981 171.718 256.417 170.181 254.393C168.643 252.369 166.054 251 163.695 251.744C159.797 252.974 159.16 258.567 160.104 262.734C162.61 273.785 172.105 291.648 172.105 291.648C159.776 296.768 145.087 291.927 135.574 282.211C126.061 272.496 121.106 258.738 118.948 244.971C117.118 233.297 117.377 220.366 124.074 210.864Z" fill="#2F2E41"/>
<path d="M579.7 274.524C588.26 253.864 583.41 234.851 572.975 224.765V224.757C568.873 215.078 563.419 207.609 557.177 205.856C554.16 203.815 551.232 201.418 547.982 200.199C546.468 199.602 544.856 199.335 543.241 199.412C541.626 199.489 540.043 199.909 538.587 200.648L536.93 200.182C535.522 196.397 533.873 196.32 532.039 198.81C524.976 195.347 518.614 193.797 512.951 193.797C494.482 193.797 483.558 210.259 480.662 230.159L496.099 234.487L501.464 225.485L498.986 235.3L507.505 237.679C520.472 255.454 504.955 296.457 485.287 319.271C489.969 317.907 494.632 316.755 499.276 315.815L516.152 289.767L505.695 313.478C511.125 312.64 518.051 313.444 525.62 315.062C528.17 311.556 529.513 306.881 528.194 302.715C530.351 307.109 531.838 311.833 532.602 316.713C548.578 320.82 570.369 322.929 582.113 324.487C591.602 321.226 591.627 284.399 579.7 274.524Z" fill="#2F2E41"/>
<path d="M585.269 204.246C591.539 219.026 578.887 225.383 567.298 225.203C556.825 225.041 547.925 217.296 547.39 206.284C547.133 200.996 548.882 195.817 552.253 191.887C555.623 187.957 560.338 185.597 565.361 185.327C575.821 184.764 580.998 194.178 585.269 204.246Z" fill="#2F2E41"/>
<path d="M294.395 444.843L284.067 426.708L318.408 399.281L332.686 383.411C334.541 381.349 336.878 379.836 339.462 379.023C342.047 378.209 344.789 378.124 347.414 378.776C350.04 379.428 352.457 380.793 354.424 382.737C356.391 384.68 357.839 387.133 358.624 389.85C359.787 393.876 359.418 398.22 357.595 401.966C355.773 405.712 352.64 408.565 348.857 409.925L326.669 417.899L294.395 444.843Z" fill="#A0616A"/>
<path d="M301.86 444.245L285.78 458.353L281.445 462.155L280.938 462.595C279.82 463.179 278.694 463.755 277.559 464.323C274.165 466.025 270.727 467.642 267.247 469.175C258.089 473.207 248.693 476.61 239.117 479.362C237.299 479.887 235.473 480.387 233.639 480.861C232.521 481.149 231.395 481.437 230.269 481.708C229.561 481.886 228.845 482.055 228.129 482.216C227.26 482.419 226.392 482.623 225.523 482.809C224.614 483.012 223.705 483.207 222.796 483.393C220.35 480.943 218.403 477.995 217.073 474.729C215.742 471.462 215.057 467.945 215.058 464.39C215.058 464.162 215.058 463.925 215.066 463.688L217.648 393.969L218.79 363.068C218.966 356.08 221.731 349.442 226.494 344.571C231.258 339.701 237.641 336.985 244.281 337.003C245.054 337.003 245.818 337.045 246.574 337.122C247.121 337.867 247.628 338.637 248.118 339.416C249.454 341.5 251.256 344.794 253.379 348.926C254.256 350.628 255.181 352.474 256.154 354.431C256.742 355.608 261.809 372.256 266.74 389.26L264.568 407.018L260.643 439.028L276.747 427.901L288.089 420.059L289.432 422.422L292.932 428.57L299.688 440.425L301.86 444.245Z" fill="#3F3D56"/>
<path d="M293.044 424.319C293.036 425.759 293.004 427.173 292.931 428.57C292.764 432.425 292.339 436.262 291.66 440.053C290.55 446.42 288.569 452.584 285.78 458.353C285.41 459.124 285.016 459.886 284.614 460.631C283.576 461.207 282.522 461.766 281.469 462.325C281.292 462.418 281.115 462.511 280.938 462.596C276.457 464.941 271.894 467.135 267.247 469.176C258.089 473.208 248.693 476.611 239.117 479.363C237.299 479.888 235.473 480.387 233.639 480.862C230.059 481.793 226.445 482.637 222.796 483.394C207.942 486.466 192.839 488.008 177.701 488C176.696 488 175.698 487.992 174.693 487.983C174.387 487.983 174.081 487.975 173.768 487.967C172.883 487.95 171.966 487.933 171.033 487.907C153.144 487.387 135.372 484.69 118.071 479.871C116.695 479.49 115.325 479.095 113.961 478.685C100.809 474.748 88.0166 469.584 75.7355 463.256C62.2377 434.015 64.7715 418.4 62.3262 382.935C67.3456 369.733 152.266 379.057 217.648 393.969C235.393 398.017 251.69 402.48 264.568 407.019C277.873 411.702 287.518 416.461 291.298 420.932C292.182 421.858 292.789 423.035 293.044 424.319Z" fill="#2F2E41"/>
<path opacity="0.2" d="M62.3312 389.007C62.2063 386.811 62.0667 384.543 61.9038 382.181C70.0604 360.74 288.929 398.703 292.622 423.566C292.611 425.845 292.519 428.057 292.363 430.217C283.422 405.678 75.4933 369.596 62.3312 389.007Z" fill="black"/>
</g>
<defs>
<clipPath id="clip0_662_321">
<rect width="708" height="488" fill="white"/>
</clipPath>
</defs>
</svg>
